<?xml version="1.0" ?>
<!-- Uploaded to: SVG Repo, www.svgrepo.com, Generator: SVG Repo Mixer Tools -->
<svg fill="#000000" width="800px" height="800px" viewBox="0 0 32 32" xmlns="http://www.w3.org/2000/svg">
<title/>
<g data-name="Layer 2" id="Layer_2">
<path d="M3.77,6.8a1,1,0,0,0-.27,1,21.26,21.26,0,0,0,4.53,8c.74.79,1.49,1.54,2.23,2.21H8a1,1,0,0,0-1,1v3a1,1,0,0,0,1,1h.12L9,30.12A1,1,0,0,0,10,31H22a1,1,0,0,0,1-.88L23.88,23H24a1,1,0,0,0,1-1V19a1,1,0,0,0-1-1H21.68c.75-.69,1.52-1.45,2.26-2.27a21.14,21.14,0,0,0,4.47-8,1,1,0,0,0-1.24-1.21,15.86,15.86,0,0,0-4,2A15.75,15.75,0,0,0,23.11,4a1,1,0,0,0-1.58-.61,15.86,15.86,0,0,0-3,3.26,15.74,15.74,0,0,0-1.65-4.14A.92.92,0,0,0,16,2a1,1,0,0,0-.85.48,15.65,15.65,0,0,0-1.67,4.26,16.13,16.13,0,0,0-3.12-3.35A1,1,0,0,0,8.78,4a15.45,15.45,0,0,0,0,4.45,15.42,15.42,0,0,0-4-1.91A1,1,0,0,0,3.77,6.8ZM21.12,29H10.88l-.75-6H21.87ZM23,21H9V20H23Zm-.54-6.61c-.69.76-1.4,1.47-2.09,2.11l.06-.15c.23-.44.45-.89.67-1.38l.09-.21c.23-.52.46-1,.67-1.6s.4-1.07.59-1.62a14.16,14.16,0,0,1,3.27-2.31A18.83,18.83,0,0,1,22.46,14.39ZM21.29,6.32a14,14,0,0,1-.66,4.36h0s0,0,0,0c-.19.55-.39,1.13-.62,1.72l-.36.89-.13.28-.24.57c-.06.11-.11.22-.16.33s-.15.33-.23.48-.11.23-.16.34-.15.29-.22.43l-.18.32c-.07.13-.14.27-.22.39l-.16.29-.23.37c-.05.09-.11.17-.16.25l-.23.34c-.05.07-.1.14-.14.21l-.07.08H16.5c0-.11,0-.21,0-.34,0-.33.1-.69.17-1.07,0-.12.06-.26.08-.38.06-.27.11-.53.18-.81h0a31.77,31.77,0,0,1,1.18-3.69c.24-.6.48-1.18.73-1.73A14.14,14.14,0,0,1,21.29,6.32ZM16,5.35a14.62,14.62,0,0,1,.93,4,1.22,1.22,0,0,0-.07.17q-.32.69-.6,1.44l-.3.79q-.13-.39-.3-.78c-.18-.47-.37-.91-.56-1.34l-.06-.13A14.66,14.66,0,0,1,16,5.35Zm-2.88,4.79c.23.5.46,1,.68,1.59s.46,1.22.66,1.82c.06.2.11.38.17.57.11.36.22.72.31,1.06s-.1.45-.14.67-.07.3-.1.44c-.07.4-.13.78-.17,1.14h0a.38.38,0,0,0,0,.1l-.06-.09q-.29-.42-.57-.9l-.08-.15c-.18-.31-.36-.65-.54-1l-.09-.17c-.19-.38-.38-.78-.57-1.19,0-.08-.07-.17-.11-.25-.19-.43-.38-.87-.56-1.32-.23-.6-.45-1.19-.64-1.78a14.13,14.13,0,0,1-.7-4.33A14.38,14.38,0,0,1,13.13,10.14ZM9.49,11.56l.07.19c.16.47.34.95.53,1.45s.44,1.07.67,1.59a1.47,1.47,0,0,1,.1.22c.22.48.45.94.68,1.38l.06.12c-.69-.62-1.4-1.33-2.1-2.08A19,19,0,0,1,6.2,9.29,14.69,14.69,0,0,1,9.49,11.56Z"/>
</g>
</svg>